<svg width="343" height="104" viewBox="0 0 343 104" fill="none" xmlns="http://www.w3.org/2000/svg">
<path fill-rule="evenodd" clip-rule="evenodd" d="M4 4H95V99H4V4ZM0 0H4H95H99V4V99V103H95H4H0V99V4V0ZM113.074 1.72H120.324V40H113.074V1.72ZM125.534 16.191H129.826V6.418H137.134V16.191H142.76V22.31H137.134V30.923C137.134 32.0637 137.318 32.953 137.685 33.591C138.053 34.2097 138.633 34.519 139.425 34.519C140.025 34.519 140.518 34.403 140.904 34.171C141.291 33.9197 141.523 33.7457 141.6 33.649L144.21 38.927C144.094 39.043 143.717 39.246 143.079 39.536C142.461 39.826 141.658 40.087 140.672 40.319C139.706 40.5703 138.613 40.696 137.395 40.696C135.211 40.696 133.403 40.0677 131.972 38.811C130.542 37.535 129.826 35.563 129.826 32.895V22.31H125.534V16.191ZM166.632 40V35.853C166.458 36.2783 166.014 36.8777 165.298 37.651C164.583 38.4243 163.616 39.13 162.398 39.768C161.2 40.3867 159.788 40.696 158.164 40.696C155.883 40.696 153.863 40.1547 152.103 39.072C150.344 37.97 148.962 36.4717 147.956 34.577C146.97 32.663 146.477 30.5073 146.477 28.11C146.477 25.7127 146.97 23.5667 147.956 21.672C148.962 19.758 150.344 18.25 152.103 17.148C153.863 16.046 155.883 15.495 158.164 15.495C159.75 15.495 161.122 15.7657 162.282 16.307C163.462 16.829 164.409 17.4477 165.124 18.163C165.859 18.859 166.333 19.4873 166.545 20.048V16.191H173.853V40H166.632ZM153.698 28.11C153.698 29.444 153.998 30.6233 154.597 31.648C155.197 32.6533 155.989 33.4363 156.975 33.997C157.961 34.5577 159.034 34.838 160.194 34.838C161.412 34.838 162.495 34.5577 163.442 33.997C164.39 33.417 165.134 32.6243 165.675 31.619C166.236 30.5943 166.516 29.4247 166.516 28.11C166.516 26.7953 166.236 25.6353 165.675 24.63C165.134 23.6053 164.39 22.803 163.442 22.223C162.495 21.643 161.412 21.353 160.194 21.353C159.034 21.353 157.961 21.643 156.975 22.223C155.989 22.7837 155.197 23.5763 154.597 24.601C153.998 25.6063 153.698 26.776 153.698 28.11ZM132.33 96.533C134.341 96.533 136.129 96.2527 137.695 95.692C139.261 95.112 140.411 94.5417 141.146 93.981L144.249 100.158C143.36 100.931 141.823 101.714 139.638 102.507C137.473 103.3 134.882 103.696 131.866 103.696C129.043 103.696 126.404 103.203 123.949 102.217C121.494 101.212 119.338 99.8197 117.482 98.041C115.626 96.243 114.176 94.1453 113.132 91.748C112.088 89.3313 111.566 86.7213 111.566 83.918C111.566 81.1147 112.078 78.5047 113.103 76.088C114.147 73.652 115.597 71.535 117.453 69.737C119.309 67.939 121.465 66.5373 123.92 65.532C126.395 64.5267 129.043 64.024 131.866 64.024C134.882 64.024 137.473 64.4203 139.638 65.213C141.823 66.0057 143.36 66.7887 144.249 67.562L141.146 73.739C140.411 73.1783 139.261 72.6177 137.695 72.057C136.129 71.477 134.341 71.187 132.33 71.187C130.281 71.187 128.454 71.5157 126.849 72.173C125.264 72.8303 123.91 73.7487 122.789 74.928C121.687 76.088 120.846 77.4317 120.266 78.959C119.686 80.4863 119.396 82.1103 119.396 83.831C119.396 85.571 119.686 87.2143 120.266 88.761C120.846 90.2883 121.687 91.6417 122.789 92.821C123.91 93.981 125.264 94.8897 126.849 95.547C128.454 96.2043 130.281 96.533 132.33 96.533ZM155.249 92.734C155.307 93.8167 155.597 94.7833 156.119 95.634C156.641 96.4847 157.395 97.1517 158.381 97.635C159.386 98.1183 160.585 98.36 161.977 98.36C163.233 98.36 164.335 98.2053 165.283 97.896C166.249 97.5867 167.061 97.2097 167.719 96.765C168.395 96.301 168.898 95.8563 169.227 95.431L172.272 99.955C171.73 100.632 171.005 101.26 170.097 101.84C169.207 102.401 168.067 102.845 166.675 103.174C165.302 103.522 163.581 103.696 161.513 103.696C158.903 103.696 156.612 103.184 154.64 102.159C152.668 101.134 151.131 99.6553 150.029 97.722C148.927 95.7887 148.376 93.488 148.376 90.82C148.376 88.5 148.869 86.412 149.855 84.556C150.841 82.6807 152.271 81.2017 154.147 80.119C156.041 79.0363 158.313 78.495 160.962 78.495C163.456 78.495 165.611 78.9783 167.429 79.945C169.265 80.8923 170.686 82.2843 171.692 84.121C172.697 85.9577 173.2 88.2003 173.2 90.849C173.2 91.0037 173.19 91.3227 173.171 91.806C173.171 92.27 173.151 92.5793 173.113 92.734H155.249ZM166.298 88.181C166.278 87.5623 166.085 86.8953 165.718 86.18C165.37 85.4647 164.819 84.8557 164.065 84.353C163.311 83.8503 162.305 83.599 161.049 83.599C159.792 83.599 158.758 83.8407 157.946 84.324C157.153 84.8073 156.554 85.4067 156.148 86.122C155.742 86.818 155.51 87.5043 155.452 88.181H166.298ZM185.018 103H177.652V79.191H185.018V82.6764C185.206 82.2813 185.525 81.8155 185.975 81.279C186.593 80.5637 187.444 79.9257 188.527 79.365C189.609 78.785 190.914 78.495 192.442 78.495C193.544 78.495 194.539 78.6593 195.429 78.988C196.337 79.2973 196.985 79.6067 197.372 79.916L194.472 85.948C194.22 85.6387 193.747 85.3197 193.051 84.991C192.374 84.6623 191.523 84.498 190.499 84.498C189.281 84.498 188.266 84.8363 187.454 85.513C186.642 86.1703 186.033 86.9823 185.627 87.949C185.221 88.8963 185.018 89.7857 185.018 90.617V103ZM218.289 103V98.853C218.115 99.2783 217.67 99.8777 216.955 100.651C216.239 101.424 215.273 102.13 214.055 102.768C212.856 103.387 211.445 103.696 209.821 103.696C207.539 103.696 205.519 103.155 203.76 102.072C202 100.97 200.618 99.4717 199.613 97.577C198.627 95.663 198.134 93.5073 198.134 91.11C198.134 88.7127 198.627 86.5667 199.613 84.672C200.618 82.758 202 81.25 203.76 80.148C205.519 79.046 207.539 78.495 209.821 78.495C211.406 78.495 212.779 78.7657 213.939 79.307C215.118 79.829 216.065 80.4477 216.781 81.163C217.515 81.859 217.989 82.4873 218.202 83.048V79.191H225.51V103H218.289ZM205.355 91.11C205.355 92.444 205.654 93.6233 206.254 94.648C206.853 95.6533 207.646 96.4363 208.632 96.997C209.618 97.5577 210.691 97.838 211.851 97.838C213.069 97.838 214.151 97.5577 215.099 96.997C216.046 96.417 216.79 95.6243 217.332 94.619C217.892 93.5943 218.173 92.4247 218.173 91.11C218.173 89.7953 217.892 88.6353 217.332 87.63C216.79 86.6053 216.046 85.803 215.099 85.223C214.151 84.643 213.069 84.353 211.851 84.353C210.691 84.353 209.618 84.643 208.632 85.223C207.646 85.7837 206.853 86.5763 206.254 87.601C205.654 88.6063 205.355 89.776 205.355 91.11ZM219.101 76.929L212.228 71.912L205.384 76.9L202.6 73.188L212.228 66.141L221.885 73.217L219.101 76.929ZM262.703 78.495C264.481 78.495 266.028 78.872 267.343 79.626C268.677 80.38 269.711 81.54 270.446 83.106C271.2 84.6527 271.577 86.644 271.577 89.08V103H264.327V90.269C264.327 88.2583 264.027 86.6923 263.428 85.571C262.848 84.4497 261.736 83.889 260.093 83.889C259.165 83.889 258.314 84.1403 257.541 84.643C256.767 85.1263 256.149 85.8417 255.685 86.789C255.24 87.7363 255.018 88.8963 255.018 90.269V103H248.232V90.269C248.232 88.2583 247.893 86.6923 247.217 85.571C246.54 84.4497 245.467 83.889 243.998 83.889C243.05 83.889 242.19 84.1307 241.417 84.614C240.663 85.0973 240.063 85.8127 239.619 86.76C239.193 87.688 238.981 88.8577 238.981 90.269V103H231.673V79.191H238.981V82.671C239.193 82.0717 239.677 81.453 240.431 80.815C241.204 80.177 242.161 79.6357 243.302 79.191C244.442 78.727 245.67 78.495 246.985 78.495C248.415 78.495 249.604 78.7367 250.552 79.22C251.499 79.7033 252.263 80.322 252.843 81.076C253.442 81.8107 253.896 82.584 254.206 83.396C254.476 82.642 255.008 81.888 255.801 81.134C256.593 80.38 257.589 79.7517 258.788 79.249C259.986 78.7463 261.291 78.495 262.703 78.495ZM277.785 103V79.191H285.122V103H277.785ZM281.555 73.043C280.337 73.043 279.303 72.6177 278.452 71.767C277.621 70.9163 277.205 69.9013 277.205 68.722C277.205 67.5427 277.63 66.518 278.481 65.648C279.332 64.778 280.356 64.343 281.555 64.343C282.348 64.343 283.073 64.546 283.73 64.952C284.387 65.3387 284.919 65.8607 285.325 66.518C285.731 67.1753 285.934 67.91 285.934 68.722C285.934 69.9013 285.499 70.9163 284.629 71.767C283.778 72.6177 282.754 73.043 281.555 73.043ZM304.089 97.838C305.346 97.838 306.371 97.6253 307.163 97.2C307.956 96.7747 308.478 96.4557 308.729 96.243L312.151 101.318C311.881 101.531 311.378 101.83 310.643 102.217C309.909 102.604 308.971 102.942 307.83 103.232C306.709 103.541 305.423 103.696 303.973 103.696C301.46 103.696 299.208 103.193 297.216 102.188C295.225 101.163 293.649 99.7133 292.489 97.838C291.349 95.9433 290.778 93.691 290.778 91.081C290.778 88.4517 291.349 86.1993 292.489 84.324C293.649 82.4487 295.225 81.0083 297.216 80.003C299.208 78.9977 301.46 78.495 303.973 78.495C305.404 78.495 306.67 78.6497 307.772 78.959C308.894 79.2683 309.831 79.626 310.585 80.032C311.339 80.4187 311.861 80.7377 312.151 80.989L308.642 86.093C308.507 85.9383 308.246 85.7257 307.859 85.455C307.473 85.1843 306.96 84.933 306.322 84.701C305.704 84.469 304.959 84.353 304.089 84.353C303.026 84.353 302.011 84.6333 301.044 85.194C300.097 85.7547 299.324 86.5377 298.724 87.543C298.125 88.5483 297.825 89.7277 297.825 91.081C297.825 92.4343 298.125 93.6233 298.724 94.648C299.324 95.6533 300.097 96.4363 301.044 96.997C302.011 97.5577 303.026 97.838 304.089 97.838ZM335.025 103V98.853C334.851 99.2783 334.406 99.8777 333.691 100.651C332.976 101.424 332.009 102.13 330.791 102.768C329.592 103.387 328.181 103.696 326.557 103.696C324.276 103.696 322.255 103.155 320.496 102.072C318.737 100.97 317.354 99.4717 316.349 97.577C315.363 95.663 314.87 93.5073 314.87 91.11C314.87 88.7127 315.363 86.5667 316.349 84.672C317.354 82.758 318.737 81.25 320.496 80.148C322.255 79.046 324.276 78.495 326.557 78.495C328.142 78.495 329.515 78.7657 330.675 79.307C331.854 79.829 332.802 80.4477 333.517 81.163C334.252 81.859 334.725 82.4873 334.938 83.048V79.191H342.246V103H335.025ZM322.091 91.11C322.091 92.444 322.391 93.6233 322.99 94.648C323.589 95.6533 324.382 96.4363 325.368 96.997C326.354 97.5577 327.427 97.838 328.587 97.838C329.805 97.838 330.888 97.5577 331.835 96.997C332.782 96.417 333.527 95.6243 334.068 94.619C334.629 93.5943 334.909 92.4247 334.909 91.11C334.909 89.7953 334.629 88.6353 334.068 87.63C333.527 86.6053 332.782 85.803 331.835 85.223C330.888 84.643 329.805 84.353 328.587 84.353C327.427 84.353 326.354 84.643 325.368 85.223C324.382 85.7837 323.589 86.5763 322.99 87.601C322.391 88.6063 322.091 89.776 322.091 91.11ZM36.324 19.72H29.074V58H36.324V19.72ZM61.33 73.808C63.3407 73.808 65.129 73.5277 66.695 72.967C68.261 72.387 69.4113 71.8167 70.146 71.256L73.249 77.433C72.3597 78.2063 70.8227 78.9893 68.638 79.782C66.4727 80.5747 63.882 80.971 60.866 80.971C58.0433 80.971 55.4043 80.478 52.949 79.492C50.4937 78.4867 48.338 77.0947 46.482 75.316C44.626 73.518 43.176 71.4203 42.132 69.023C41.088 66.6063 40.566 63.9963 40.566 61.193C40.566 58.3897 41.0783 55.7797 42.103 53.363C43.147 50.927 44.597 48.81 46.453 47.012C48.309 45.214 50.4647 43.8123 52.92 42.807C55.3947 41.8017 58.0433 41.299 60.866 41.299C63.882 41.299 66.4727 41.6953 68.638 42.488C70.8227 43.2807 72.3597 44.0637 73.249 44.837L70.146 51.014C69.4113 50.4533 68.261 49.8927 66.695 49.332C65.129 48.752 63.3407 48.462 61.33 48.462C59.2807 48.462 57.4537 48.7907 55.849 49.448C54.2637 50.1053 52.9103 51.0237 51.789 52.203C50.687 53.363 49.846 54.7067 49.266 56.234C48.686 57.7613 48.396 59.3853 48.396 61.106C48.396 62.846 48.686 64.4893 49.266 66.036C49.846 67.5633 50.687 68.9167 51.789 70.096C52.9103 71.256 54.2637 72.1647 55.849 72.822C57.4537 73.4793 59.2807 73.808 61.33 73.808Z" fill="#D34204"/>
</svg>
