<svg width="317" height="70" viewBox="0 0 317 70" fill="none" xmlns="http://www.w3.org/2000/svg">
<path fill-rule="evenodd" clip-rule="evenodd" d="M100.882 0H65.882V70H135.882V0H100.882ZM100.044 31.172C100.663 30.6307 100.972 29.8767 100.972 28.91C100.972 26.9767 99.8507 25.3333 97.608 23.98C95.3653 22.6267 92.5813 21.95 89.256 21.95C83.688 21.95 79.0287 23.98 75.278 28.04C71.5273 32.1 69.652 37.3393 69.652 43.758C69.652 50.1767 71.2953 55.242 74.582 58.954C77.9073 62.666 82.1413 64.522 87.284 64.522C90.996 64.522 94.2053 63.6713 96.912 61.97C99.6573 60.23 101.03 58.6447 101.03 57.214C101.03 56.6727 100.895 56.2473 100.624 55.938C100.392 55.59 100.141 55.3967 99.87 55.358C98.594 56.634 96.97 57.736 94.998 58.664C93.026 59.592 90.8993 60.056 88.618 60.056C84.326 60.056 80.9813 58.606 78.584 55.706C76.1867 52.7673 74.988 48.5527 74.988 43.062C74.988 37.5713 76.3027 33.318 78.932 30.302C81.6 27.2473 84.7127 25.72 88.27 25.72C90.822 25.72 92.6973 26.242 93.896 27.286C95.0947 28.33 95.694 29.5093 95.694 30.824C95.694 31.056 95.6747 31.3073 95.636 31.578C96.1387 31.8487 96.8347 31.984 97.724 31.984C98.652 31.984 99.4253 31.7133 100.044 31.172ZM126.42 43.41C126.42 45.1113 125.627 46.02 124.042 46.136L113.196 47.006C113.544 43.99 114.453 41.6313 115.922 39.93C117.391 38.2287 119.015 37.378 120.794 37.378C122.573 37.378 123.945 37.958 124.912 39.118C125.917 40.2393 126.42 41.67 126.42 43.41ZM115.516 57.91C113.892 56.0927 113.08 53.2893 113.08 49.5L125.144 49.152C127.348 49.0747 128.933 48.6107 129.9 47.76C130.905 46.8707 131.408 45.5173 131.408 43.7C131.408 41.1867 130.499 38.944 128.682 36.972C126.903 35 124.583 34.014 121.722 34.014C118.126 34.014 114.936 35.58 112.152 38.712C109.407 41.8053 108.034 45.6333 108.034 50.196C108.034 54.72 109.31 58.2387 111.862 60.752C114.414 63.2653 117.681 64.522 121.664 64.522C124.216 64.522 126.42 63.9613 128.276 62.84C130.132 61.68 131.06 60.462 131.06 59.186C131.06 58.4513 130.77 57.9293 130.19 57.62C128.179 59.6307 125.647 60.636 122.592 60.636C119.537 60.636 117.179 59.7273 115.516 57.91ZM6.322 25.952V60.404C6.322 61.4867 6.786 62.2407 7.714 62.666C6.94067 63.9033 5.916 64.522 4.64 64.522C2.51333 64.522 1.45 63.1687 1.45 60.462V26.01C1.45 24.9273 0.966667 24.1733 0 23.748C0.696 22.5493 1.70133 21.95 3.016 21.95C5.22 21.95 6.322 23.284 6.322 25.952ZM22.2892 38.248V56.634C22.2892 58.0647 22.5599 59.0893 23.1012 59.708C23.6812 60.3267 24.6092 60.636 25.8852 60.636C28.2826 60.636 30.5446 59.6113 32.6712 57.562C33.3286 57.91 33.6572 58.4707 33.6572 59.244C33.6572 60.5587 32.8066 61.7767 31.1052 62.898C29.4039 63.9807 27.3159 64.522 24.8412 64.522C19.8919 64.522 17.4172 61.9507 17.4172 56.808V38.248C14.2852 38.132 12.7192 37.378 12.7192 35.986C12.7192 35.2513 12.9512 34.6907 13.4152 34.304C14.7686 34.4973 15.8126 34.594 16.5472 34.594H17.4172V29.896C17.4172 28.8133 16.9339 28.04 15.9672 27.576C16.7406 26.3773 17.7459 25.778 18.9832 25.778C21.1872 25.778 22.2892 27.1313 22.2892 29.838V34.594H32.0332C32.1879 34.8647 32.2652 35.1933 32.2652 35.58C32.2652 37.3587 29.2106 38.248 23.1012 38.248H22.2892ZM43.5426 56.576C43.5426 59.36 45.0506 60.752 48.0666 60.752C51.1213 60.752 53.6346 59.418 55.6066 56.75V49.848C51.5079 50.08 48.4726 50.8147 46.5006 52.052C44.5286 53.2507 43.5426 54.7587 43.5426 56.576ZM60.4206 43.352V58.78C60.4206 60.8293 61.3679 61.9893 63.2626 62.26C62.5279 63.768 61.3099 64.522 59.6086 64.522C57.1726 64.522 55.8386 62.956 55.6066 59.824C53.3639 62.956 50.3479 64.522 46.5586 64.522C44.1613 64.522 42.1893 63.8647 40.6426 62.55C39.0959 61.2353 38.3226 59.418 38.3226 57.098C38.3226 54.2367 39.7533 51.936 42.6146 50.196C45.5146 48.4173 49.8453 47.4507 55.6066 47.296V43.816C55.6066 41.4187 55.1813 39.6593 54.3306 38.538C53.4799 37.378 52.1266 36.798 50.2706 36.798C48.4533 36.798 47.0806 37.1847 46.1526 37.958C45.2246 38.6927 44.7606 39.5433 44.7606 40.51C44.7606 41.438 45.0313 42.192 45.5726 42.772C44.7606 43.3907 43.8519 43.7 42.8466 43.7C41.8799 43.7 41.0873 43.4293 40.4686 42.888C39.8499 42.3467 39.5406 41.5733 39.5406 40.568C39.5406 38.7507 40.5846 37.204 42.6726 35.928C44.7606 34.652 47.3319 34.014 50.3866 34.014C53.4413 34.014 55.8773 34.8453 57.6946 36.508C59.5119 38.132 60.4206 40.4133 60.4206 43.352ZM146.032 40.22V38.074C146.032 35.3673 144.949 34.014 142.784 34.014C141.508 34.014 140.503 34.6327 139.768 35.87C140.735 36.2953 141.218 37.0687 141.218 38.19V60.462C141.218 63.1687 142.301 64.522 144.466 64.522C145.665 64.522 146.67 63.9033 147.482 62.666C146.515 62.2793 146.032 61.5253 146.032 60.404V45.498C146.535 42.8687 147.405 40.916 148.642 39.64C149.879 38.364 151.136 37.726 152.412 37.726C154.345 37.726 155.312 38.6927 155.312 40.626C155.312 41.2447 155.273 41.7473 155.196 42.134C155.737 42.2887 156.337 42.366 156.994 42.366C157.651 42.366 158.289 42.0567 158.908 41.438C159.527 40.7807 159.836 39.8527 159.836 38.654C159.836 37.4167 159.333 36.334 158.328 35.406C157.323 34.478 155.911 34.014 154.094 34.014C150.343 34.014 147.656 36.0827 146.032 40.22ZM168.704 31.056C169.4 31.056 170.077 30.7273 170.734 30.07L175.316 25.43L179.898 30.07C180.555 30.7273 181.232 31.056 181.928 31.056C182.624 31.056 183.049 30.766 183.204 30.186L179.376 24.212C178.719 23.2067 178.1 22.472 177.52 22.008C176.94 21.544 176.205 21.312 175.316 21.312C174.465 21.312 173.731 21.544 173.112 22.008C172.532 22.472 171.933 23.2067 171.314 24.212L167.428 30.186C167.583 30.766 168.008 31.056 168.704 31.056ZM173.17 60.752C170.154 60.752 168.646 59.36 168.646 56.576C168.646 54.7587 169.632 53.2507 171.604 52.052C173.576 50.8147 176.611 50.08 180.71 49.848V56.75C178.738 59.418 176.225 60.752 173.17 60.752ZM185.524 58.78V43.352C185.524 40.4133 184.615 38.132 182.798 36.508C180.981 34.8453 178.545 34.014 175.49 34.014C172.435 34.014 169.864 34.652 167.776 35.928C165.688 37.204 164.644 38.7507 164.644 40.568C164.644 41.5733 164.953 42.3467 165.572 42.888C166.191 43.4293 166.983 43.7 167.95 43.7C168.955 43.7 169.864 43.3907 170.676 42.772C170.135 42.192 169.864 41.438 169.864 40.51C169.864 39.5433 170.328 38.6927 171.256 37.958C172.184 37.1847 173.557 36.798 175.374 36.798C177.23 36.798 178.583 37.378 179.434 38.538C180.285 39.6593 180.71 41.4187 180.71 43.816V47.296C174.949 47.4507 170.618 48.4173 167.718 50.196C164.857 51.936 163.426 54.2367 163.426 57.098C163.426 59.418 164.199 61.2353 165.746 62.55C167.293 63.8647 169.265 64.522 171.662 64.522C175.451 64.522 178.467 62.956 180.71 59.824C180.942 62.956 182.276 64.522 184.712 64.522C186.413 64.522 187.631 63.768 188.366 62.26C186.471 61.9893 185.524 60.8293 185.524 58.78ZM239.484 60.404V43.99C239.484 40.7033 238.691 38.2287 237.106 36.566C235.559 34.8647 233.51 34.014 230.958 34.014C228.445 34.014 226.221 34.7487 224.288 36.218C222.355 37.6487 220.943 39.466 220.054 41.67C219.706 39.118 218.778 37.204 217.27 35.928C215.801 34.652 213.906 34.014 211.586 34.014C209.266 34.014 207.178 34.6713 205.322 35.986C203.466 37.3007 202.035 39.002 201.03 41.09V38.074C201.03 35.3673 199.947 34.014 197.782 34.014C196.506 34.014 195.501 34.6327 194.766 35.87C195.733 36.2953 196.216 37.0687 196.216 38.19V60.462C196.216 63.1687 197.299 64.522 199.464 64.522C200.663 64.522 201.668 63.9033 202.48 62.666C201.513 62.2793 201.03 61.5253 201.03 60.404V46.774C201.687 44.1833 202.886 42.1147 204.626 40.568C206.366 39.0213 208.203 38.248 210.136 38.248C213.693 38.248 215.472 40.278 215.472 44.338V60.462C215.472 63.1687 216.535 64.522 218.662 64.522C219.899 64.522 220.924 63.9033 221.736 62.666C220.731 62.2407 220.228 61.4867 220.228 60.404V47.006C220.885 44.338 222.084 42.2113 223.824 40.626C225.564 39.0407 227.401 38.248 229.334 38.248C232.891 38.248 234.67 40.278 234.67 44.338V60.462C234.67 63.1687 235.753 64.522 237.918 64.522C239.233 64.522 240.238 63.9033 240.934 62.666C239.967 62.2407 239.484 61.4867 239.484 60.404ZM255.013 22.53C254.394 21.95 253.582 21.66 252.577 21.66C251.61 21.66 250.663 22.0273 249.735 22.762C248.845 23.458 248.401 24.3087 248.401 25.314C248.401 26.3193 248.729 27.1313 249.387 27.75C250.044 28.3687 250.895 28.678 251.939 28.678C252.983 28.678 253.911 28.2913 254.723 27.518C255.573 26.706 255.999 25.8167 255.999 24.85C255.999 23.8447 255.67 23.0713 255.013 22.53ZM254.839 60.404V38.074C254.839 35.3673 253.756 34.014 251.591 34.014C250.315 34.014 249.309 34.6327 248.575 35.87C249.541 36.2953 250.025 37.0687 250.025 38.19V60.462C250.025 63.1687 251.107 64.522 253.273 64.522C254.471 64.522 255.477 63.9033 256.289 62.666C255.322 62.2793 254.839 61.5253 254.839 60.404ZM284.978 41.786C285.52 41.2447 285.79 40.51 285.79 39.582C285.79 38.0353 285.056 36.7207 283.586 35.638C282.156 34.5553 280.222 34.014 277.786 34.014C273.649 34.014 270.13 35.58 267.23 38.712C264.369 41.8053 262.938 45.6527 262.938 50.254C262.938 54.8167 264.214 58.3353 266.766 60.81C269.318 63.2847 272.392 64.522 275.988 64.522C278.463 64.522 280.667 63.9227 282.6 62.724C284.534 61.5253 285.5 60.3073 285.5 59.07C285.5 58.374 285.249 57.8133 284.746 57.388C282.62 59.4373 279.952 60.462 276.742 60.462C274.229 60.462 272.102 59.534 270.362 57.678C268.661 55.822 267.81 53.0573 267.81 49.384C267.81 45.672 268.738 42.7333 270.594 40.568C272.45 38.4027 274.558 37.32 276.916 37.32C279.816 37.32 281.266 38.4993 281.266 40.858C281.266 41.2833 281.208 41.7087 281.092 42.134C281.595 42.4433 282.233 42.598 283.006 42.598C283.78 42.598 284.437 42.3273 284.978 41.786ZM301.404 60.752C298.389 60.752 296.88 59.36 296.88 56.576C296.88 54.7587 297.866 53.2507 299.838 52.052C301.81 50.8147 304.846 50.08 308.944 49.848V56.75C306.972 59.418 304.459 60.752 301.404 60.752ZM313.758 58.78V43.352C313.758 40.4133 312.85 38.132 311.032 36.508C309.215 34.8453 306.779 34.014 303.724 34.014C300.67 34.014 298.098 34.652 296.01 35.928C293.922 37.204 292.878 38.7507 292.878 40.568C292.878 41.5733 293.188 42.3467 293.806 42.888C294.425 43.4293 295.218 43.7 296.184 43.7C297.19 43.7 298.098 43.3907 298.91 42.772C298.369 42.192 298.098 41.438 298.098 40.51C298.098 39.5433 298.562 38.6927 299.49 37.958C300.418 37.1847 301.791 36.798 303.608 36.798C305.464 36.798 306.818 37.378 307.668 38.538C308.519 39.6593 308.944 41.4187 308.944 43.816V47.296C303.183 47.4507 298.852 48.4173 295.952 50.196C293.091 51.936 291.66 54.2367 291.66 57.098C291.66 59.418 292.434 61.2353 293.98 62.55C295.527 63.8647 297.499 64.522 299.896 64.522C303.686 64.522 306.702 62.956 308.944 59.824C309.176 62.956 310.51 64.522 312.946 64.522C314.648 64.522 315.866 63.768 316.6 62.26C314.706 61.9893 313.758 60.8293 313.758 58.78Z" fill="#D34204"/>
</svg>
