<svg width="321" height="70" viewBox="0 0 321 70" fill="none" xmlns="http://www.w3.org/2000/svg">
<path fill-rule="evenodd" clip-rule="evenodd" d="M68 68V2H35H2V68H68ZM2 0H0V2V68V70H2H68H70H140V0H105H70H68H35H2ZM252 21H256.5H261V30H252V21ZM10.44 60.404V25.952C10.44 23.284 9.338 21.95 7.134 21.95C5.81933 21.95 4.814 22.5493 4.118 23.748C5.08467 24.1733 5.568 24.9273 5.568 26.01V60.462C5.568 63.1687 6.63133 64.522 8.758 64.522C10.034 64.522 11.0587 63.9033 11.832 62.666C10.904 62.2407 10.44 61.4867 10.44 60.404ZM26.4072 56.634V38.248H27.2192C33.3286 38.248 36.3832 37.3587 36.3832 35.58C36.3832 35.1933 36.3059 34.8647 36.1512 34.594H26.4072V29.838C26.4072 27.1313 25.3052 25.778 23.1012 25.778C21.8639 25.778 20.8586 26.3773 20.0852 27.576C21.0519 28.04 21.5352 28.8133 21.5352 29.896V34.594H20.6652C19.9306 34.594 18.8866 34.4973 17.5332 34.304C17.0692 34.6907 16.8372 35.2513 16.8372 35.986C16.8372 37.378 18.4032 38.132 21.5352 38.248V56.808C21.5352 61.9507 24.0099 64.522 28.9592 64.522C31.4339 64.522 33.5219 63.9807 35.2232 62.898C36.9246 61.7767 37.7752 60.5587 37.7752 59.244C37.7752 58.4707 37.4466 57.91 36.7892 57.562C34.6626 59.6113 32.4006 60.636 30.0032 60.636C28.7272 60.636 27.7992 60.3267 27.2192 59.708C26.6779 59.0893 26.4072 58.0647 26.4072 56.634ZM52.1846 60.752C49.1686 60.752 47.6606 59.36 47.6606 56.576C47.6606 54.7587 48.6466 53.2507 50.6186 52.052C52.5906 50.8147 55.6259 50.08 59.7246 49.848V56.75C57.7526 59.418 55.2393 60.752 52.1846 60.752ZM64.5386 58.78V43.352C64.5386 40.4133 63.6299 38.132 61.8126 36.508C59.9953 34.8453 57.5593 34.014 54.5046 34.014C51.4499 34.014 48.8786 34.652 46.7906 35.928C44.7026 37.204 43.6586 38.7507 43.6586 40.568C43.6586 41.5733 43.9679 42.3467 44.5866 42.888C45.2053 43.4293 45.9979 43.7 46.9646 43.7C47.9699 43.7 48.8786 43.3907 49.6906 42.772C49.1493 42.192 48.8786 41.438 48.8786 40.51C48.8786 39.5433 49.3426 38.6927 50.2706 37.958C51.1986 37.1847 52.5713 36.798 54.3886 36.798C56.2446 36.798 57.5979 37.378 58.4486 38.538C59.2993 39.6593 59.7246 41.4187 59.7246 43.816V47.296C53.9633 47.4507 49.6326 48.4173 46.7326 50.196C43.8713 51.936 42.4406 54.2367 42.4406 57.098C42.4406 59.418 43.2139 61.2353 44.7606 62.55C46.3073 63.8647 48.2793 64.522 50.6766 64.522C54.4659 64.522 57.4819 62.956 59.7246 59.824C59.9566 62.956 61.2906 64.522 63.7266 64.522C65.4279 64.522 66.6459 63.768 67.3806 62.26C65.4859 61.9893 64.5386 60.8293 64.5386 58.78ZM104.162 31.172C104.781 30.6307 105.09 29.8767 105.09 28.91C105.09 26.9767 103.969 25.3333 101.726 23.98C99.4833 22.6267 96.6993 21.95 93.374 21.95C87.806 21.95 83.1467 23.98 79.396 28.04C75.6453 32.1 73.77 37.3393 73.77 43.758C73.77 50.1767 75.4133 55.242 78.7 58.954C82.0253 62.666 86.2593 64.522 91.402 64.522C95.114 64.522 98.3233 63.6713 101.03 61.97C103.775 60.23 105.148 58.6447 105.148 57.214C105.148 56.6727 105.013 56.2473 104.742 55.938C104.51 55.59 104.259 55.3967 103.988 55.358C102.712 56.634 101.088 57.736 99.116 58.664C97.144 59.592 95.0173 60.056 92.736 60.056C88.444 60.056 85.0993 58.606 82.702 55.706C80.3047 52.7673 79.106 48.5527 79.106 43.062C79.106 37.5713 80.4207 33.318 83.05 30.302C85.718 27.2473 88.8307 25.72 92.388 25.72C94.94 25.72 96.8153 26.242 98.014 27.286C99.2127 28.33 99.812 29.5093 99.812 30.824C99.812 31.056 99.7927 31.3073 99.754 31.578C100.257 31.8487 100.953 31.984 101.842 31.984C102.77 31.984 103.543 31.7133 104.162 31.172ZM130.538 43.41C130.538 45.1113 129.745 46.02 128.16 46.136L117.314 47.006C117.662 43.99 118.571 41.6313 120.04 39.93C121.509 38.2287 123.133 37.378 124.912 37.378C126.691 37.378 128.063 37.958 129.03 39.118C130.035 40.2393 130.538 41.67 130.538 43.41ZM119.634 57.91C118.01 56.0927 117.198 53.2893 117.198 49.5L129.262 49.152C131.466 49.0747 133.051 48.6107 134.018 47.76C135.023 46.8707 135.526 45.5173 135.526 43.7C135.526 41.1867 134.617 38.944 132.8 36.972C131.021 35 128.701 34.014 125.84 34.014C122.244 34.014 119.054 35.58 116.27 38.712C113.525 41.8053 112.152 45.6333 112.152 50.196C112.152 54.72 113.428 58.2387 115.98 60.752C118.532 63.2653 121.799 64.522 125.782 64.522C128.334 64.522 130.538 63.9613 132.394 62.84C134.25 61.68 135.178 60.462 135.178 59.186C135.178 58.4513 134.888 57.9293 134.308 57.62C132.297 59.6307 129.765 60.636 126.71 60.636C123.655 60.636 121.297 59.7273 119.634 57.91ZM150.15 40.22V38.074C150.15 35.3673 149.067 34.014 146.902 34.014C145.626 34.014 144.621 34.6327 143.886 35.87C144.853 36.2953 145.336 37.0687 145.336 38.19V60.462C145.336 63.1687 146.419 64.522 148.584 64.522C149.783 64.522 150.788 63.9033 151.6 62.666C150.633 62.2793 150.15 61.5253 150.15 60.404V45.498C150.653 42.8687 151.523 40.916 152.76 39.64C153.997 38.364 155.254 37.726 156.53 37.726C158.463 37.726 159.43 38.6927 159.43 40.626C159.43 41.2447 159.391 41.7473 159.314 42.134C159.855 42.2887 160.455 42.366 161.112 42.366C161.769 42.366 162.407 42.0567 163.026 41.438C163.645 40.7807 163.954 39.8527 163.954 38.654C163.954 37.4167 163.451 36.334 162.446 35.406C161.441 34.478 160.029 34.014 158.212 34.014C154.461 34.014 151.774 36.0827 150.15 40.22ZM172.822 31.056C173.518 31.056 174.195 30.7273 174.852 30.07L179.434 25.43L184.016 30.07C184.673 30.7273 185.35 31.056 186.046 31.056C186.742 31.056 187.167 30.766 187.322 30.186L183.494 24.212C182.837 23.2067 182.218 22.472 181.638 22.008C181.058 21.544 180.323 21.312 179.434 21.312C178.583 21.312 177.849 21.544 177.23 22.008C176.65 22.472 176.051 23.2067 175.432 24.212L171.546 30.186C171.701 30.766 172.126 31.056 172.822 31.056ZM177.288 60.752C174.272 60.752 172.764 59.36 172.764 56.576C172.764 54.7587 173.75 53.2507 175.722 52.052C177.694 50.8147 180.729 50.08 184.828 49.848V56.75C182.856 59.418 180.343 60.752 177.288 60.752ZM189.642 58.78V43.352C189.642 40.4133 188.733 38.132 186.916 36.508C185.099 34.8453 182.663 34.014 179.608 34.014C176.553 34.014 173.982 34.652 171.894 35.928C169.806 37.204 168.762 38.7507 168.762 40.568C168.762 41.5733 169.071 42.3467 169.69 42.888C170.309 43.4293 171.101 43.7 172.068 43.7C173.073 43.7 173.982 43.3907 174.794 42.772C174.253 42.192 173.982 41.438 173.982 40.51C173.982 39.5433 174.446 38.6927 175.374 37.958C176.302 37.1847 177.675 36.798 179.492 36.798C181.348 36.798 182.701 37.378 183.552 38.538C184.403 39.6593 184.828 41.4187 184.828 43.816V47.296C179.067 47.4507 174.736 48.4173 171.836 50.196C168.975 51.936 167.544 54.2367 167.544 57.098C167.544 59.418 168.317 61.2353 169.864 62.55C171.411 63.8647 173.383 64.522 175.78 64.522C179.569 64.522 182.585 62.956 184.828 59.824C185.06 62.956 186.394 64.522 188.83 64.522C190.531 64.522 191.749 63.768 192.484 62.26C190.589 61.9893 189.642 60.8293 189.642 58.78ZM243.602 60.404V43.99C243.602 40.7033 242.809 38.2287 241.224 36.566C239.677 34.8647 237.628 34.014 235.076 34.014C232.563 34.014 230.339 34.7487 228.406 36.218C226.473 37.6487 225.061 39.466 224.172 41.67C223.824 39.118 222.896 37.204 221.388 35.928C219.919 34.652 218.024 34.014 215.704 34.014C213.384 34.014 211.296 34.6713 209.44 35.986C207.584 37.3007 206.153 39.002 205.148 41.09V38.074C205.148 35.3673 204.065 34.014 201.9 34.014C200.624 34.014 199.619 34.6327 198.884 35.87C199.851 36.2953 200.334 37.0687 200.334 38.19V60.462C200.334 63.1687 201.417 64.522 203.582 64.522C204.781 64.522 205.786 63.9033 206.598 62.666C205.631 62.2793 205.148 61.5253 205.148 60.404V46.774C205.805 44.1833 207.004 42.1147 208.744 40.568C210.484 39.0213 212.321 38.248 214.254 38.248C217.811 38.248 219.59 40.278 219.59 44.338V60.462C219.59 63.1687 220.653 64.522 222.78 64.522C224.017 64.522 225.042 63.9033 225.854 62.666C224.849 62.2407 224.346 61.4867 224.346 60.404V47.006C225.003 44.338 226.202 42.2113 227.942 40.626C229.682 39.0407 231.519 38.248 233.452 38.248C237.009 38.248 238.788 40.278 238.788 44.338V60.462C238.788 63.1687 239.871 64.522 242.036 64.522C243.351 64.522 244.356 63.9033 245.052 62.666C244.085 62.2407 243.602 61.4867 243.602 60.404ZM258.957 60.404V38.074C258.957 35.3673 257.874 34.014 255.709 34.014C254.433 34.014 253.427 34.6327 252.693 35.87C253.659 36.2953 254.143 37.0687 254.143 38.19V60.462C254.143 63.1687 255.225 64.522 257.391 64.522C258.589 64.522 259.595 63.9033 260.407 62.666C259.44 62.2793 258.957 61.5253 258.957 60.404ZM289.096 41.786C289.638 41.2447 289.908 40.51 289.908 39.582C289.908 38.0353 289.174 36.7207 287.704 35.638C286.274 34.5553 284.34 34.014 281.904 34.014C277.767 34.014 274.248 35.58 271.348 38.712C268.487 41.8053 267.056 45.6527 267.056 50.254C267.056 54.8167 268.332 58.3353 270.884 60.81C273.436 63.2847 276.51 64.522 280.106 64.522C282.581 64.522 284.785 63.9227 286.718 62.724C288.652 61.5253 289.618 60.3073 289.618 59.07C289.618 58.374 289.367 57.8133 288.864 57.388C286.738 59.4373 284.07 60.462 280.86 60.462C278.347 60.462 276.22 59.534 274.48 57.678C272.779 55.822 271.928 53.0573 271.928 49.384C271.928 45.672 272.856 42.7333 274.712 40.568C276.568 38.4027 278.676 37.32 281.034 37.32C283.934 37.32 285.384 38.4993 285.384 40.858C285.384 41.2833 285.326 41.7087 285.21 42.134C285.713 42.4433 286.351 42.598 287.124 42.598C287.898 42.598 288.555 42.3273 289.096 41.786ZM305.522 60.752C302.507 60.752 300.998 59.36 300.998 56.576C300.998 54.7587 301.984 53.2507 303.956 52.052C305.928 50.8147 308.964 50.08 313.062 49.848V56.75C311.09 59.418 308.577 60.752 305.522 60.752ZM317.876 58.78V43.352C317.876 40.4133 316.968 38.132 315.15 36.508C313.333 34.8453 310.897 34.014 307.842 34.014C304.788 34.014 302.216 34.652 300.128 35.928C298.04 37.204 296.996 38.7507 296.996 40.568C296.996 41.5733 297.306 42.3467 297.924 42.888C298.543 43.4293 299.336 43.7 300.302 43.7C301.308 43.7 302.216 43.3907 303.028 42.772C302.487 42.192 302.216 41.438 302.216 40.51C302.216 39.5433 302.68 38.6927 303.608 37.958C304.536 37.1847 305.909 36.798 307.726 36.798C309.582 36.798 310.936 37.378 311.786 38.538C312.637 39.6593 313.062 41.4187 313.062 43.816V47.296C307.301 47.4507 302.97 48.4173 300.07 50.196C297.209 51.936 295.778 54.2367 295.778 57.098C295.778 59.418 296.552 61.2353 298.098 62.55C299.645 63.8647 301.617 64.522 304.014 64.522C307.804 64.522 310.82 62.956 313.062 59.824C313.294 62.956 314.628 64.522 317.064 64.522C318.766 64.522 319.984 63.768 320.718 62.26C318.824 61.9893 317.876 60.8293 317.876 58.78Z" fill="#973309"/>
</svg>
